<?xml version="1.0" standalone="no"?><!DOCTYPE svg PUBLIC "-//W3C//DTD SVG 1.1//EN" "http://www.w3.org/Graphics/SVG/1.1/DTD/svg11.dtd"><svg t="1599035146347" class="icon" viewBox="0 0 1024 1024" version="1.1" xmlns="http://www.w3.org/2000/svg" p-id="4396" xmlns:xlink="http://www.w3.org/1999/xlink" width="200" height="200"><defs><style type="text/css"></style></defs><path d="M959.480703 216.027658a20.013265 20.013265 0 1 1-20.230015-19.941014 20.013265 20.013265 0 0 1 20.230015 19.941014z" fill="#5FB0E5" p-id="4397"></path><path d="M606.394694 120.874339m-11.921259 0a11.921259 11.921259 0 1 0 23.842518 0 11.921259 11.921259 0 1 0-23.842518 0Z" fill="#5FB0E5" p-id="4398"></path><path d="M838.100614 60.979045a29.983772 29.983772 0 1 1-29.983772-29.983772A29.983772 29.983772 0 0 1 838.100614 60.979045zM749.233049 231.99492a15.967262 15.967262 0 1 1-15.967262-15.967262 15.967262 15.967262 0 0 1 15.967262 15.967262z" fill="#5FB0E5" p-id="4399"></path><path d="M844.892119 916.130671h34.391025v34.174275h-34.391025z" fill="#0686D8" p-id="4400"></path><path d="M549.244902 916.130671h121.163339v34.174275H549.244902z" fill="#0686D8" p-id="4401"></path><path d="M375.917025 950.377196h-38.581528l-157.288365-492.02286-171.593876-13.00501 2.528752-34.102025 194.641643 14.739011 156.710364 490.144359h13.58301v34.246525z" fill="#0686D8" p-id="4402"></path><path d="M226.792916 518.82763h754.868553v34.174275H226.792916z" fill="#0686D8" p-id="4403"></path><path d="M253.380936 603.649192h686.086502v34.174275H253.380936z" fill="#0686D8" p-id="4404"></path><path d="M272.8162 688.470754h647.215974v34.174275H272.8162z" fill="#0686D8" p-id="4405"></path><path d="M525.113385 933.253934a60.834545 60.834545 0 1 1-60.834545-60.834545 60.834545 60.834545 0 0 1 60.834545 60.834545zM816.425598 933.253934a60.834545 60.834545 0 1 1-60.834545-60.834545 60.834545 60.834545 0 0 1 60.834545 60.834545z" fill="#D2E9F7" p-id="4406"></path><path d="M464.27884 1011.500741A77.885557 77.885557 0 1 1 541.875397 933.253934 77.957807 77.957807 0 0 1 464.27884 1011.500741z m0-121.596839a43.711282 43.711282 0 1 0 43.350032 43.350032 43.711282 43.711282 0 0 0-43.350032-43.711282z" fill="#0686D8" p-id="4407"></path><path d="M755.518803 1011.500741a77.885557 77.885557 0 1 1 77.885557-77.885557A77.885557 77.885557 0 0 1 755.518803 1011.500741z m0-121.596839a43.711282 43.711282 0 1 0 43.711282 43.350032 43.711282 43.711282 0 0 0-43.711282-43.711282z" fill="#0686D8" p-id="4408"></path><path d="M902.475411 814.258096H308.435476v-34.246525h569.041417l94.503069-295.358216 32.584774 10.404008-102.089325 319.200733z" fill="#0686D8" p-id="4409"></path><path d="M442.025824 916.130671h44.506032v34.174275h-44.506032z" fill="#0686D8" p-id="4410"></path><path d="M733.265787 916.130671h44.506033v34.174275h-44.506033z" fill="#0686D8" p-id="4411"></path><path d="M549.100402 499.031116H255.620687V186.549637A33.596275 33.596275 0 0 1 289.000212 152.953362h226.431666A33.596275 33.596275 0 0 1 549.100402 186.549637z" fill="#9ECFEF" p-id="4412"></path><path d="M272.6717 499.031116H238.425175V186.549637a50.575037 50.575037 0 0 1 50.575037-50.575037h226.431666a50.575037 50.575037 0 0 1 50.575037 50.575037V270.937698h-34.102025V186.549637a16.473012 16.473012 0 0 0-16.473012-16.473012H289.000212a16.473012 16.473012 0 0 0-16.473012 16.473012z" fill="#0686D8" p-id="4413"></path><path d="M540.069146 312.625979h340.369999a33.596275 33.596275 0 0 1 33.596274 33.596275v152.808862H506.472871V346.150004a33.596275 33.596275 0 0 1 33.596275-33.524025z" fill="#D2E9F7" p-id="4414"></path><path d="M931.086432 499.031116h-34.246525V346.150004a16.545262 16.545262 0 0 0-16.473012-16.473013h-340.297749a16.545262 16.545262 0 0 0-16.473013 16.473013v152.881112h-34.246525V346.150004a50.575037 50.575037 0 0 1 50.575037-50.575038h340.29775a50.575037 50.575037 0 0 1 50.575037 50.575038z" fill="#0686D8" p-id="4415"></path><path d="M545.70465 373.966274h128.243844v34.174275H545.70465z" fill="#0686D8" p-id="4416"></path><path d="M545.70465 442.387074h64.085797v34.174275h-64.085797z" fill="#0686D8" p-id="4417"></path></svg>